<mxfile host="app.diagrams.net" modified="2023-07-19T14:13:50.560Z" agent="Mozilla/5.0 (Windows NT 10.0; Win64; x64; rv:109.0) Gecko/20100101 Firefox/115.0" version="21.6.3" etag="26EhA2Xw0iDzkv5CFDYl" type="github">
  <diagram name="PÃ¡gina-1" id="yjuay4e8EpQjV-JNbk4p">
    <mxGraphModel>
      <root>
        <mxCell id="0" />
        <mxCell id="1" parent="0" />
      </root>
    </mxGraphModel>
  </diagram>
</mxfile>
